HIERARCHY
ROOT Hips
{
	OFFSET 0.000000 0.000000 0.000000
	CHANNELS 6 Xposition Yposition Zposition Yrotation Xrotation Zrotation
	JOINT Chest
	{
		OFFSET 0.000000 -0.009282 11.569106
		CHANNELS 6 Xposition Yposition Zposition Yrotation Xrotation Zrotation
		JOINT Chest2
		{
			OFFSET -0.000000 0.016863 9.269641
			CHANNELS 6 Xposition Yposition Zposition Yrotation Xrotation Zrotation
			JOINT Chest3
			{
				OFFSET -0.000000 0.000000 8.374491
				CHANNELS 6 Xposition Yposition Zposition Yrotation Xrotation Zrotation
				JOINT Chest4
				{
					OFFSET -0.000000 0.000000 8.374493
					CHANNELS 6 Xposition Yposition Zposition Yrotation Xrotation Zrotation
					JOINT Neck
					{
						OFFSET -0.000000 0.000001 12.152554
						CHANNELS 6 Xposition Yposition Zposition Yrotation Xrotation Zrotation
						JOINT Head
						{
							OFFSET -0.000000 0.040100 7.802319
							CHANNELS 6 Xposition Yposition Zposition Yrotation Xrotation Zrotation
							End Site
							{
								OFFSET -0.000000 0.020946 14.853096
							}
						}
					}
					JOINT RightCollar
					{
						OFFSET 2.894404 0.000001 6.791374
						CHANNELS 6 Xposition Yposition Zposition Yrotation Xrotation Zrotation
						JOINT RightShoulder
						{
							OFFSET 13.574684 0.000001 0.000000
							CHANNELS 6 Xposition Yposition Zposition Yrotation Xrotation Zrotation
							JOINT RightElbow
							{
								OFFSET 23.923903 0.000002 0.000000
								CHANNELS 6 Xposition Yposition Zposition Yrotation Xrotation Zrotation
								JOINT RightWrist
								{
									OFFSET 19.846718 0.012767 0.000000
									CHANNELS 6 Xposition Yposition Zposition Yrotation Xrotation Zrotation
									End Site
									{
										OFFSET 14.973145 0.000001 0.000000
									}
								}
							}
						}
					}
					JOINT LeftCollar
					{
						OFFSET -2.894404 0.000000 6.791374
						CHANNELS 6 Xposition Yposition Zposition Yrotation Xrotation Zrotation
						JOINT LeftShoulder
						{
							OFFSET -13.574684 -0.000001 0.000000
							CHANNELS 6 Xposition Yposition Zposition Yrotation Xrotation Zrotation
							JOINT LeftElbow
							{
								OFFSET -23.923903 -0.000002 0.000000
								CHANNELS 6 Xposition Yposition Zposition Yrotation Xrotation Zrotation
								JOINT LeftWrist
								{
									OFFSET -19.846718 0.012763 0.000000
									CHANNELS 6 Xposition Yposition Zposition Yrotation Xrotation Zrotation
									End Site
									{
										OFFSET -14.973145 -0.000001 0.000000
									}
								}
							}
						}
					}
				}
			}
		}
	}
	JOINT RightHip
	{
		OFFSET 9.469263 0.004643 0.045487
		CHANNELS 6 Xposition Yposition Zposition Yrotation Xrotation Zrotation
		JOINT RightKnee
		{
			OFFSET 0.000000 0.002666 -40.478676
			CHANNELS 6 Xposition Yposition Zposition Yrotation Xrotation Zrotation
			JOINT RightAnkle
			{
				OFFSET 0.000000 0.049110 -35.224068
				CHANNELS 6 Xposition Yposition Zposition Yrotation Xrotation Zrotation
				JOINT RightToe
				{
					OFFSET -0.000001 12.539530 -6.151390
					CHANNELS 6 Xposition Yposition Zposition Yrotation Xrotation Zrotation
					End Site
					{
						OFFSET -0.000001 5.044996 -1.291870
					}
				}
			}
		}
	}
	JOINT LeftHip
	{
		OFFSET -9.469263 0.004641 0.045487
		CHANNELS 6 Xposition Yposition Zposition Yrotation Xrotation Zrotation
		JOINT LeftKnee
		{
			OFFSET 0.000000 0.002666 -40.478676
			CHANNELS 6 Xposition Yposition Zposition Yrotation Xrotation Zrotation
			JOINT LeftAnkle
			{
				OFFSET 0.000000 0.049110 -35.224068
				CHANNELS 6 Xposition Yposition Zposition Yrotation Xrotation Zrotation
				JOINT LeftToe
				{
					OFFSET -0.000001 12.539530 -6.151390
					CHANNELS 6 Xposition Yposition Zposition Yrotation Xrotation Zrotation
					End Site
					{
						OFFSET -0.000001 5.044996 -1.291870
					}
				}
			}
		}
	}
}
MOTION
Frames: 8
Frame Time: 0.016667
5.716904 5.126516 83.076843 -9.793913 -2.603234 -102.889929 0.000000 -0.009282 11.569104 -0.181950 -2.030212 0.965089 0.000000 0.016864 9.269645 -0.077693 -0.891970 0.384983 0.000000 0.000001 8.374498 -0.077694 -0.891971 0.384983 0.000001 -0.000000 8.374488 -0.057707 -0.669029 0.288616 -0.000000 0.000003 12.152549 4.607903 -17.479147 -9.581240 0.000001 0.040101 7.802299 5.242202 3.729904 -16.109387 2.894404 0.000002 6.791368 3.848598 -2.560812 -10.030280 13.574684 0.000001 -0.000007 58.365114 7.772745 57.839476 23.923903 0.000013 0.000000 19.333701 -24.973123 67.033915 19.846722 0.012757 0.000006 23.345563 4.612685 -60.195482 -2.894404 0.000000 6.791362 -6.621217 -1.709035 -5.835840 -13.574686 -0.000002 -0.000002 -56.843850 -8.630565 -47.844362 -23.923901 -0.000011 0.000000 -27.062145 -15.457066 -63.228215 -19.846716 0.012775 0.000007 -33.624157 3.785713 56.324325 9.469264 0.004642 0.045484 1.705446 -13.850028 -10.760858 0.000146 0.002656 -40.478489 -4.208561 3.756670 -3.404739 0.000015 0.049110 -35.224033 5.229157 0.793615 -0.253625 -0.000001 12.539529 -6.151389 -0.001262 0.029352 0.009339 -9.469262 0.004641 0.045488 0.681251 -13.864627 -24.038052 -0.000843 0.002518 -40.478420 -0.767033 5.872330 18.358813 -0.000887 0.048959 -35.224079 0.349449 -0.333291 19.401832 -0.000002 12.539532 -6.151389 0.010287 -0.041055 0.010109 
5.715367 5.126207 83.075623 -9.720853 -2.598378 -102.973462 0.000001 -0.009281 11.569104 -0.182204 -1.983039 1.006073 0.000001 0.016862 9.269636 -0.078675 -0.888575 0.376291 0.000000 0.000001 8.374488 -0.078675 -0.888576 0.376291 0.000000 0.000001 8.374492 -0.058459 -0.666482 0.282097 0.000001 0.000001 12.152542 4.581926 -17.408240 -9.574444 0.000000 0.040100 7.802323 5.190151 3.858905 -16.107825 2.894405 -0.000000 6.791366 3.838953 -2.708697 -10.005133 13.574685 0.000003 0.000005 58.443565 7.696401 58.178431 23.923899 0.000002 0.000002 17.862452 -25.067575 69.087493 19.846724 0.012770 -0.000001 22.723474 3.832018 -59.816843 -2.894404 -0.000001 6.791368 -6.632335 -1.785447 -5.821299 -13.574687 -0.000000 -0.000002 -56.913449 -8.617766 -47.905639 -23.923891 0.000009 0.000005 -25.162321 -16.208850 -63.971709 -19.846712 0.012767 0.000004 -32.768639 1.560346 56.707690 9.469263 0.004644 0.045486 1.692400 -13.763886 -10.683517 0.000145 0.002656 -40.478485 -4.201014 3.761402 -3.393876 0.000013 0.049109 -35.224041 5.221475 0.762237 -0.259194 -0.000001 12.539528 -6.151392 0.000993 0.036436 0.014502 -9.469261 0.004642 0.045481 0.684677 -13.806876 -23.964069 -0.000843 0.002517 -40.478428 -0.772775 5.885466 18.366314 -0.000885 0.048956 -35.224075 0.352938 -0.322451 19.351922 0.000001 12.539532 -6.151397 0.007444 -0.052722 0.001514 
5.725471 5.110543 83.076263 -9.693105 -2.615079 -103.017954 0.000000 -0.009284 11.569105 -0.176426 -1.977401 1.020919 0.000000 0.016865 9.269645 -0.082610 -0.882424 0.375296 0.000001 0.000001 8.374484 -0.082609 -0.882424 0.375295 0.000001 -0.000000 8.374500 -0.061414 -0.661869 0.281347 0.000000 -0.000002 12.152556 4.561314 -17.332073 -9.581405 0.000001 0.040102 7.802313 5.142827 3.997529 -16.130062 2.894405 -0.000002 6.791378 3.852109 -2.836463 -10.032784 13.574686 0.000002 0.000012 58.589451 7.526352 58.465723 23.923912 0.000002 0.000000 16.596344 -25.079331 71.032328 19.846718 0.012773 -0.000007 22.117375 3.064956 -59.475969 -2.894403 -0.000002 6.791387 -6.640946 -1.859956 -5.842102 -13.574686 -0.000000 0.000000 -56.984278 -8.691988 -47.963675 -23.923895 -0.000005 0.000002 -23.104891 -16.756520 -64.722838 -19.846712 0.012755 -0.000002 -32.174938 -0.047998 56.887645 9.469263 0.004642 0.045487 1.707740 -13.749588 -10.648710 0.000144 0.002655 -40.478474 -4.200699 3.772199 -3.385272 0.000014 0.049109 -35.224037 5.229057 0.751324 -0.243240 0.000002 12.539525 -6.151387 -0.006929 0.042146 -0.001896 -9.469262 0.004641 0.045488 0.707551 -13.803626 -23.907945 -0.000844 0.002515 -40.478424 -0.777301 5.910507 18.357429 -0.000888 0.048956 -35.224072 0.337492 -0.313130 19.473639 -0.000004 12.539534 -6.151394 0.026739 -0.057163 0.039388 
5.730882 5.109881 83.076134 -9.661349 -2.600612 -103.028356 0.000000 -0.009281 11.569105 -0.189146 -1.967924 0.984871 0.000000 0.016865 9.269622 -0.084707 -0.879803 0.367689 0.000001 0.000001 8.374491 -0.084707 -0.879801 0.367689 0.000001 -0.000001 8.374485 -0.063000 -0.659903 0.275640 0.000001 0.000004 12.152567 4.530242 -17.246646 -9.578954 -0.000000 0.040103 7.802324 5.078515 4.152698 -16.138890 2.894405 0.000002 6.791374 3.846969 -2.924919 -10.024925 13.574684 -0.000000 -0.000002 58.872645 7.358670 58.723269 23.923901 0.000007 0.000012 15.375772 -25.140161 72.949330 19.846722 0.012758 0.000017 21.516937 2.209562 -59.290318 -2.894402 0.000001 6.791378 -6.674253 -1.897022 -5.834768 -13.574683 -0.000000 0.000000 -57.078050 -8.794496 -48.006483 -23.923895 0.000004 -0.000008 -21.579634 -17.094616 -65.226565 -19.846716 0.012768 -0.000005 -31.419703 -1.363635 56.876638 9.469263 0.004644 0.045485 1.706548 -13.726891 -10.658431 0.000144 0.002656 -40.478493 -4.205467 3.788526 -3.375689 0.000013 0.049109 -35.224030 5.225489 0.754944 -0.243937 0.000000 12.539525 -6.151396 -0.001882 0.032254 0.007786 -9.469262 0.004644 0.045489 0.715458 -13.793387 -23.879793 -0.000843 0.002517 -40.478420 -0.779559 5.935866 18.348275 -0.000886 0.048959 -35.224079 0.333536 -0.327762 19.375821 -0.000003 12.539533 -6.151393 0.016778 -0.049321 0.015890 
5.739373 5.099930 83.076378 -9.639640 -2.596913 -103.014190 0.000000 -0.009282 11.569098 -0.189724 -1.991451 0.923059 0.000001 0.016864 9.269630 -0.085120 -0.886025 0.359337 0.000000 -0.000000 8.374484 -0.085120 -0.886026 0.359337 -0.000000 -0.000000 8.374512 -0.063317 -0.664570 0.269372 -0.000001 -0.000000 12.152554 4.494623 -17.145165 -9.572920 0.000001 0.040101 7.802297 5.005488 4.337277 -16.143296 2.894404 -0.000002 6.791369 3.846720 -2.988030 -9.993192 13.574681 0.000001 0.000005 59.239604 7.239989 58.957442 23.923906 0.000009 -0.000002 14.183388 -25.342054 74.899301 19.846722 0.012754 -0.000005 20.785019 1.383847 -59.176493 -2.894405 -0.000003 6.791366 -6.711903 -1.899015 -5.820260 -13.574682 -0.000001 0.000003 -57.217007 -8.835043 -48.032407 -23.923908 -0.000003 -0.000005 -20.674723 -17.463827 -65.522729 -19.846716 0.012763 0.000006 -30.206539 -3.352778 56.798419 9.469263 0.004643 0.045481 1.721134 -13.718172 -10.697866 0.000143 0.002655 -40.478497 -4.211841 3.806895 -3.365709 0.000014 0.049105 -35.224037 5.229067 0.756032 -0.233021 -0.000001 12.539528 -6.151391 -0.003168 0.026282 0.004298 -9.469261 0.004642 0.045484 0.729282 -13.790258 -23.901479 -0.000845 0.002516 -40.478416 -0.773955 5.961711 18.363331 -0.000881 0.048960 -35.224079 0.319048 -0.354871 19.262167 -0.000000 12.539531 -6.151393 0.018113 -0.032560 0.022080 
5.743253 5.096653 83.076653 -9.605706 -2.589408 -103.029989 0.000000 -0.009281 11.569104 -0.191821 -2.018506 0.900713 -0.000000 0.016863 9.269629 -0.081929 -0.898624 0.354959 0.000000 0.000001 8.374486 -0.081929 -0.898625 0.354957 0.000000 0.000000 8.374495 -0.060924 -0.674016 0.266093 -0.000001 -0.000000 12.152565 4.455421 -17.028840 -9.570435 0.000001 0.040099 7.802300 4.923196 4.548795 -16.156148 2.894403 -0.000001 6.791372 3.830999 -3.064600 -9.990007 13.574683 0.000002 0.000004 59.607013 7.135500 59.107836 23.923903 0.000013 0.000007 12.992719 -25.633620 77.009802 19.846718 0.012758 0.000009 19.811845 0.392443 -58.830400 -2.894405 -0.000001 6.791375 -6.754788 -1.906754 -5.832049 -13.574680 0.000001 0.000002 -57.326700 -8.845892 -48.058478 -23.923893 -0.000003 -0.000005 -19.650183 -17.899288 -65.942806 -19.846725 0.012776 0.000002 -28.685770 -5.909281 56.551347 9.469263 0.004644 0.045485 1.723927 -13.691904 -10.692662 0.000143 0.002655 -40.478485 -4.219998 3.817861 -3.366908 0.000014 0.049106 -35.224045 5.235512 0.758250 -0.222409 0.000001 12.539527 -6.151392 -0.004157 0.020010 0.001258 -9.469262 0.004644 0.045488 0.736885 -13.769721 -23.910481 -0.000848 0.002517 -40.478420 -0.773714 5.980288 18.386255 -0.000878 0.048962 -35.224075 0.320469 -0.367303 19.206063 -0.000002 12.539531 -6.151388 0.010607 -0.029316 0.013064 
5.746781 5.083339 83.077354 -9.564603 -2.595776 -103.100783 0.000001 -0.009283 11.569115 -0.179831 -2.055311 0.919224 0.000000 0.016865 9.269638 -0.079992 -0.915066 0.344246 -0.000000 -0.000001 8.374492 -0.079992 -0.915066 0.344248 -0.000000 0.000000 8.374494 -0.059477 -0.686345 0.258059 -0.000000 0.000002 12.152559 4.408453 -16.899071 -9.550845 -0.000002 0.040101 7.802343 4.831076 4.785222 -16.140726 2.894403 0.000001 6.791373 3.811366 -3.146913 -9.964484 13.574683 0.000002 0.000010 59.925833 7.011640 59.136188 23.923897 0.000013 0.000005 11.867461 -25.938811 79.241444 19.846716 0.012761 0.000010 18.479113 -0.770582 -58.124404 -2.894404 -0.000000 6.791378 -6.794735 -1.920782 -5.823983 -13.574684 0.000000 0.000012 -57.362661 -8.924259 -48.106211 -23.923897 0.000009 0.000002 -17.936440 -18.245618 -66.645339 -19.846727 0.012762 0.000000 -27.318626 -8.114634 55.974927 9.469265 0.004644 0.045494 1.718979 -13.655514 -10.623535 0.000144 0.002656 -40.478500 -4.217298 3.817213 -3.377687 0.000011 0.049108 -35.224030 5.253845 0.753287 -0.182026 0.000001 12.539528 -6.151386 -0.019838 0.023001 -0.026880 -9.469261 0.004643 0.045494 0.738556 -13.737314 -23.867789 -0.000848 0.002514 -40.478432 -0.772264 5.991033 18.404349 -0.000888 0.048961 -35.224091 0.315104 -0.352250 19.374742 -0.000002 12.539534 -6.151394 0.024350 -0.043948 0.047570 
5.747882 5.087168 83.078201 -9.532126 -2.576774 -103.078654 0.000000 -0.009281 11.569109 -0.197586 -2.085610 0.863458 0.000000 0.016863 9.269630 -0.081665 -0.928968 0.339978 -0.000000 -0.000000 8.374484 -0.081665 -0.928968 0.339978 0.000001 0.000001 8.374488 -0.060730 -0.696772 0.254854 0.000000 0.000002 12.152562 4.369450 -16.764833 -9.541650 0.000000 0.040105 7.802331 4.749593 5.030173 -16.142116 2.894404 0.000000 6.791376 3.824420 -3.254945 -9.969973 13.574683 0.000002 -0.000001 60.167587 6.835239 59.060960 23.923903 0.000009 0.000004 10.844272 -26.161426 81.482477 19.846703 0.012764 -0.000013 16.870513 -1.925223 -57.182907 -2.894404 0.000000 6.791382 -6.821090 -1.945950 -5.849157 -13.574680 -0.000001 0.000009 -57.384121 -9.144084 -48.161645 -23.923897 -0.000008 0.000008 -16.009234 -18.244883 -67.361026 -19.846718 0.012759 -0.000002 -26.276494 -9.447227 55.329962 9.469263 0.004644 0.045495 1.709831 -13.621034 -10.652244 0.000144 0.002655 -40.478493 -4.215536 3.821049 -3.380041 0.000010 0.049110 -35.224030 5.258009 0.757208 -0.180681 0.000000 12.539528 -6.151392 -0.019305 0.015635 -0.019760 -9.469261 0.004641 0.045490 0.740558 -13.708175 -23.911960 -0.000847 0.002513 -40.478428 -0.772749 5.997479 18.408074 -0.000887 0.048958 -35.224075 0.318450 -0.374193 19.399643 -0.000001 12.539533 -6.151387 0.010915 -0.026910 0.023339 
